<?xml version="1.0" encoding="utf-8"?>
<!-- Generator: Adobe Illustrator 15.0.0, SVG Export Plug-In  -->
<!DOCTYPE svg PUBLIC "-//W3C//DTD SVG 1.1//EN" "http://www.w3.org/Graphics/SVG/1.1/DTD/svg11.dtd" [
	<!ENTITY ns_flows "http://ns.adobe.com/Flows/1.0/">
]>
<svg version="1.1"
	 xmlns="http://www.w3.org/2000/svg" xmlns:xlink="http://www.w3.org/1999/xlink" xmlns:a="http://ns.adobe.com/AdobeSVGViewerExtensions/3.0/"
	 x="0px" y="0px" width="25px" height="45px" viewBox="0 0 25 45" enable-background="new 0 0 25 45" xml:space="preserve">
<defs>
</defs>
<path fill="#33A1D2" d="M20.397,1.679c0.521,0.202,1.083,0.335,1.553,0.622c0.847,0.519,1.276,1.355,1.437,2.322
	c0.062,0.369,0.086,0.748,0.086,1.123c0.004,11.761,0.004,23.521,0,35.284c-0.001,0.321-0.024,0.651-0.099,0.964
	c-0.258,1.096-1.166,1.732-2.32,1.658c-1.042-0.067-1.879-0.869-1.999-1.93c-0.037-0.322-0.052-0.648-0.052-0.973
	C19,36.426,19.001,32.1,19.001,27.775v-0.68h-2.386v-0.611c0-6.889-0.002-13.779,0.002-20.668c0-1.344,0.244-2.619,1.438-3.439
	c0.478-0.327,1.079-0.471,1.625-0.698H20.397z"/>
<path fill="#33A1D2" d="M11.059,1.679c0.444,0.28,0.521,0.704,0.519,1.193c-0.009,3.949-0.005,7.897-0.005,11.849
	c0,2.148-0.741,3.084-2.866,3.56v0.59c0,7.351,0.002,14.703-0.004,22.054c-0.001,0.391-0.02,0.793-0.111,1.168
	c-0.266,1.073-1.208,1.736-2.282,1.652c-1.08-0.084-1.924-0.93-2.021-2.039C4.262,41.398,4.26,41.09,4.26,40.783
	C4.259,33.5,4.259,26.217,4.259,18.934v-0.531c-0.647-0.276-1.234-0.456-1.749-0.762c-0.699-0.416-0.972-1.158-1.199-1.902V1.679
	h1.025c0.503,0.256,0.579,0.71,0.578,1.211C2.91,5.694,2.912,8.497,2.912,11.301v0.618h1.339v-0.618
	c0-2.838,0.006-5.676-0.006-8.513c-0.003-0.483,0.11-0.869,0.554-1.109H5.21C5.723,1.925,5.79,2.377,5.789,2.88
	c-0.006,2.817-0.003,5.634-0.003,8.451v0.578h1.375V11.32c0-2.852,0.005-5.703-0.006-8.554C7.153,2.303,7.268,1.931,7.672,1.679
	h0.514C8.614,1.98,8.661,2.426,8.661,2.898c-0.004,2.804-0.002,5.608-0.002,8.411v0.6h1.362v-0.59c0-2.838,0.007-5.676-0.008-8.513
	c-0.002-0.481,0.095-0.873,0.532-1.126H11.059z"/>
<rect id="_x3C_切片_x3E__1_" fill="none" width="25" height="45"/>
</svg>
