<?xml version="1.0" encoding="utf-8"?>
<!-- Generator: Adobe Illustrator 15.0.0, SVG Export Plug-In  -->
<!DOCTYPE svg PUBLIC "-//W3C//DTD SVG 1.1//EN" "http://www.w3.org/Graphics/SVG/1.1/DTD/svg11.dtd" [
	<!ENTITY ns_flows "http://ns.adobe.com/Flows/1.0/">
]>
<svg version="1.1"
	 xmlns="http://www.w3.org/2000/svg" xmlns:xlink="http://www.w3.org/1999/xlink" xmlns:a="http://ns.adobe.com/AdobeSVGViewerExtensions/3.0/"
	 x="0px" y="0px" width="255px" height="108px" viewBox="0 0 255 108" enable-background="new 0 0 255 108" xml:space="preserve">
<defs>
</defs>
<path fill="#FFFFFF" d="M44.429,85.063c0,10.756-5.905,16.24-16.978,16.24c-11.072,0-16.978-5.484-16.978-16.24V57.014h9.913v25.149
	c0,7.276,2.214,9.385,7.065,9.385s7.066-2.108,7.066-9.385V57.014h9.912V85.063z"/>
<path fill="#FFFFFF" d="M91.224,101.883c-3.218-1.213-6.011-2.795-7.963-4.166c-3.374,2.32-7.487,3.586-12.021,3.586
	c-12.865,0-21.671-9.86-21.671-22.567s9.702-22.515,21.671-22.515c12.074,0,21.618,9.808,21.618,22.515
	c0,4.534-1.161,8.7-3.216,12.181c1.423,0.685,3.374,1.422,5.957,2.108L91.224,101.883z M71.24,91.284
	c1.107,0,2.162-0.104,3.111-0.368c-2.478-2.32-4.43-4.693-5.378-5.906l4.218-5.272c0,0,2.953,3.269,7.381,6.274
	c1.108-2.109,1.583-4.64,1.583-7.276c0-6.485-3.217-12.549-10.915-12.549c-7.645,0-10.968,6.063-10.968,12.549
	S63.12,91.284,71.24,91.284"/>
<polygon fill="#FFFFFF" points="109.361,57.013 139.942,57.013 139.942,65.713 129.608,65.713 129.608,100.512 119.696,100.512 
	119.696,65.713 109.361,65.713 "/>
<path fill="#FFFFFF" d="M159.081,57.012c8.068,0,14.185,4.377,14.185,12.918c0,6.539-3.588,10.914-8.911,12.602l14.974,17.98
	h-12.602l-13.288-17.189v17.189h-9.912v-43.5H159.081z M154.599,76.311c3.743,0,8.227-0.264,8.227-5.695
	c0-5.431-4.483-5.693-8.227-5.693h-1.16v11.389H154.599z"/>
<polygon fill="#FFFFFF" points="206.167,65.713 191.19,65.713 191.19,74.359 205.534,74.359 205.534,83.059 191.19,83.059 
	191.19,91.813 206.167,91.813 206.167,100.512 181.28,100.512 181.28,57.012 206.167,57.012 "/>
<polygon fill="#FFFFFF" points="237.801,100.512 221.772,82.057 221.772,100.512 211.86,100.512 211.86,57.013 221.772,57.013 
	228.939,70.744 236.694,57.013 248.716,57.013 234.599,81.455 251.458,100.512 "/>
<path fill="#F091A9" d="M247.715,24.857c0-10.314-8.361-18.725-18.674-18.725c-10.314,0-18.675,8.336-18.675,18.65
	c0,0.686,0.037,1.453,0.109,2.12c0.231,2.135,0.837,2.098,1.726,6.098h-0.016l0.199,0.297c0.035,0.07,0.068,0.09,0.104,0.159
	l16.625,33.353L245.934,33h-0.059C247.042,29,247.715,27.741,247.715,24.857"/>
<path fill="#FFFFFF" d="M236.074,27.165c0,3.75-3.04,6.791-6.791,6.791c-3.75,0-6.79-3.041-6.79-6.791s3.04-6.791,6.79-6.791
	C233.034,20.374,236.074,23.415,236.074,27.165"/>
<rect id="_x3C_切片_x3E__1_" fill="none" width="255" height="108"/>
</svg>
